<svg id="Layer_1" data-name="Layer 1" xmlns="http://www.w3.org/2000/svg" viewBox="0 0 1076.34 978.02"><defs><style>.cls-1{fill:#bac9e6;}</style></defs><title>INSTAGRAM</title><g id="design"><path class="cls-1" d="M633.2,373.19a21,21,0,1,0,21,21h0A21,21,0,0,0,633.2,373.19Z"/><path class="cls-1" d="M539.64,400.18a88.4,88.4,0,1,0,88.41,88.4A88.4,88.4,0,0,0,539.64,400.18Zm0,145a56.63,56.63,0,1,1,56.63-56.63,56.62,56.62,0,0,1-56.63,56.63Z"/><path class="cls-1" d="M609.83,668.07H466.51A108,108,0,0,1,358.68,560.24V416.92A108,108,0,0,1,466.51,309.09H609.83A108,108,0,0,1,717.66,416.92V560.24A108,108,0,0,1,609.83,668.07ZM466.51,342.87a74.13,74.13,0,0,0-74.06,74.05V560.24a74.14,74.14,0,0,0,74.06,74.06H609.83a74.14,74.14,0,0,0,74-74.06V416.92a74.12,74.12,0,0,0-74-74.05Z"/></g></svg>