<svg id="Layer_1" data-name="Layer 1" xmlns="http://www.w3.org/2000/svg" viewBox="0 0 1076.34 978.02"><defs><style>.cls-1{fill:#bac9e6;}</style></defs><title>TWITTER</title><g id="design"><path class="cls-1" d="M707.33,384.11c-10.6,4.79-22.33,7.7-33.77,9.62C679,392.82,687,383,690.16,379a61.7,61.7,0,0,0,11.21-20.44c.29-.58.51-1.31-.07-1.75a1.93,1.93,0,0,0-1.79.15,172.72,172.72,0,0,1-40,15.32,2.68,2.68,0,0,1-2.76-.73,32,32,0,0,0-3.5-3.58,71,71,0,0,0-19.4-11.89,67.65,67.65,0,0,0-29.74-4.79,71,71,0,0,0-28.22,8,72.62,72.62,0,0,0-22.77,18.59,69.89,69.89,0,0,0-13.6,27.23c-2.34,9.58-2.15,19.06-.72,28.75.22,1.61.08,1.82-1.38,1.61-55-8.19-100.57-27.86-137.57-70-1.61-1.83-2.48-1.83-3.8.14-16.19,24.27-8.33,63.27,11.89,82.43,2.7,2.55,5.47,5.11,8.46,7.44-1.09.22-14.55-1.24-26.55-7.44-1.6-1-2.41-.43-2.55,1.39a41.58,41.58,0,0,0,.43,7.88c3.11,24.6,20.15,47.36,43.48,56.24A40.87,40.87,0,0,0,440,516.2c-5.31,1.17-10.79,2-26,.81-1.9-.37-2.63.58-1.9,2.4,11.45,31.23,36.19,40.52,54.7,45.82,2.48.43,5,.43,7.45,1-.15.23-.3.23-.44.44-6.14,9.37-27.44,16.34-37.36,19.8-18,6.31-37.68,9.14-56.74,7.26-3-.44-3.69-.41-4.52,0s-.11,1.25.87,2c3.87,2.56,7.81,4.82,11.82,7A186.74,186.74,0,0,0,425.77,618c68.17,18.83,144.94,5,196.13-45.86,40.19-39.93,54.28-95,54.28-150.14,0-2.16,2.55-3.35,4.06-4.49,10.46-7.86,18.89-17.26,26.69-27.76a8.46,8.46,0,0,0,1.77-5.32v-.28C708.7,383.22,708.68,383.49,707.33,384.11Z"/></g></svg>