<svg id="Layer_1" data-name="Layer 1" xmlns="http://www.w3.org/2000/svg" viewBox="0 0 1076.34 978.02"><defs><style>.cls-1{fill:#bac9e6;}</style></defs><title>SNAPCHAT</title><path class="cls-1" d="M350.92,571.5v-5.87c2.41-2.79,4.95-5.16,8.86-5.93,30.81-6.11,51.43-25.76,67-51.55,13.07-21.69,11-26.65-13.12-35.18-1.38-.49-2.8-.88-4.15-1.44-5.2-2.14-10.36-4.42-14.66-8.16-10.79-9.38-4.41-22.89,8.32-25.95,9.3-2.24,17.39,3.74,26.42,4.87,6,.75,8.44-1.28,7.7-7.71-1.91-16.54-1.85-33.18-1.08-49.8,1.48-31.68,17.06-55.81,43.46-71.45,38.54-22.84,78.82-23.12,117.63-.35,24.23,14.21,39.87,35.72,43.26,64.56,2.21,18.78,1.33,37.58-.15,56.36-.64,8.16,1,9.66,9.09,7.77,10-2.34,18.41-7.51,28.82-2.93,5.57,2.44,10.43,7.71,10.28,13.79-.1,4.17-2.53,8-5.68,10.73-4.81,4.19-11.08,6.52-16.91,8.88-4.53,1.84-9.23,3.26-13.64,5.33-9.1,4.26-11.72,9.89-7.46,18.9,14.74,31.16,36.41,54.83,71.45,63,4.28,1,7.71,2.75,10.3,6.21v5.87c-3.32,6.84-9.26,10.6-16,13.16s-13.73,5.5-21.09,6c-10.16.65-15.5,5.08-17,15.66C671,616.35,668,617.77,657.73,617c-2.43-.2-4.84-.65-7.25-1.08-20.08-3.56-38.94-1.53-55.46,11.81a121.57,121.57,0,0,1-10.28,7c-28.15,18.25-57,20.35-86.36,3.21-8-4.67-15.61-10.06-23.38-15.14a51.64,51.64,0,0,0-21.08-7.73c-12.18-1.84-23.85.89-35.71,2.2-6.09.67-12-1.07-12.32-7.37-.84-15.19-10.14-18.9-22.92-20.31-6-.65-11.83-3.07-17.44-5.41C359.41,581.6,353.84,578,350.92,571.5Z"/></svg>